# xmcd CD database file
#
# Track frame offsets:
#	150
#	22870
#	43832
#	56160
#	73580
#	96407
#	128867
#
# Disc length: 4440 seconds
#
# Revision: 0
# Processed by: cddbd v1.5PL3 Copyright (c) Steve Scherf et al.
# Submitted via: CDex 1.50
#
DISCID=60115607
DTITLE=日之内絵美 - Painful
DYEAR=2003
DGENRE=JPop
TTITLE0=Painful
TTITLE1=brand new love >Deckstream Remix
TTITLE2=THE ALBUM......Coming Soon
TTITLE3=Painful >Stringapella Version
TTITLE4=Painful >Instrumental
TTITLE5=brand new love >Deckstream Remix Instrumental
TTITLE6=cccd
EXTD=YEAR: 2003
EXTT0=
EXTT1=
EXTT2=
EXTT3=
EXTT4=
EXTT5=
EXTT6=
PLAYORDER=
